<?xml version="1.0" standalone="no"?>
<!DOCTYPE svg PUBLIC "-//W3C//DTD SVG 20010904//EN"
 "http://www.w3.org/TR/2001/REC-SVG-20010904/DTD/svg10.dtd">
<svg version="1.0" xmlns="http://www.w3.org/2000/svg"
 width="300.000000pt" height="300.000000pt" viewBox="0 0 300.000000 300.000000"
 preserveAspectRatio="xMidYMid meet">
<metadata>
Created by potrace 1.10, written by Peter Selinger 2001-2011
</metadata>
<g transform="translate(0.000000,300.000000) scale(0.100000,-0.100000)"
fill="#000000" stroke="none">
<path d="M1327 2800 c-27 -5 -54 -13 -60 -18 -7 -5 -37 -17 -67 -28 -30 -10
-71 -29 -90 -41 -19 -13 -39 -23 -45 -23 -45 -1 -239 -267 -227 -312 1 -4 -5
-42 -13 -84 -18 -93 -17 -183 1 -244 8 -25 14 -61 14 -80 0 -19 7 -48 15 -64
20 -38 19 -40 -7 -22 -27 20 -54 21 -61 3 -16 -42 36 -269 73 -319 12 -16 23
-39 25 -51 3 -12 16 -32 30 -45 21 -17 30 -20 46 -12 21 12 23 18 10 38 -6 10
-10 9 -14 -7 -8 -33 -35 -15 -48 33 -7 22 -21 49 -32 59 -30 26 -54 113 -55
190 0 49 -5 73 -16 86 -16 17 -16 19 -1 25 25 9 72 -34 80 -72 3 -18 9 -40 12
-48 4 -10 0 -12 -11 -8 -17 7 -22 -11 -6 -21 5 -3 8 -33 6 -65 -2 -35 0 -57 5
-54 5 3 18 -5 29 -18 11 -13 19 -18 20 -12 0 6 -6 17 -14 23 -19 16 -37 69
-26 76 4 3 11 -1 14 -7 3 -7 3 12 1 42 -7 76 -8 343 -2 471 4 88 9 115 28 150
13 24 30 48 37 52 6 4 12 15 12 22 0 17 -18 19 -40 5 -12 -8 -13 -12 -1 -19
10 -7 8 -12 -10 -24 -17 -12 -26 -14 -36 -5 -9 7 -17 7 -27 -1 -16 -13 -29 -1
-18 15 4 6 21 16 37 22 17 6 23 11 13 11 -39 2 -22 50 49 142 23 30 57 65 73
78 51 37 137 81 159 81 22 0 55 16 79 38 16 15 32 16 32 1 0 -5 4 -8 8 -5 13
8 67 -10 65 -22 -1 -5 7 -8 19 -4 14 3 19 1 14 -6 -5 -8 -2 -10 9 -6 12 5 13
9 4 20 -9 11 -8 14 7 15 11 0 14 3 7 6 -7 2 -13 8 -13 13 0 12 33 5 38 -8 2
-7 12 -17 22 -22 15 -8 17 -6 13 11 l-6 20 39 -20 c34 -18 40 -19 50 -7 9 13
14 13 38 0 16 -7 34 -14 41 -14 9 0 12 -11 10 -32 -2 -18 -1 -27 2 -20 4 10 9
9 24 -4 19 -17 20 -17 13 2 -7 16 -6 17 8 6 11 -9 17 -9 20 -2 2 7 14 3 31
-10 15 -12 27 -18 27 -14 0 13 39 -28 58 -61 19 -31 19 -32 -2 -58 -25 -32
-41 -36 -26 -7 6 11 7 20 2 20 -13 0 -35 -47 -28 -59 4 -6 15 -11 25 -11 10 0
18 -7 18 -15 0 -8 -4 -15 -9 -15 -5 0 -7 -3 -5 -7 3 -5 27 -8 54 -8 51 1 90
-22 80 -48 -3 -8 -1 -20 3 -27 5 -8 6 -19 2 -24 -11 -19 -13 -84 -2 -91 5 -3
10 -16 10 -28 0 -18 2 -19 11 -7 8 12 9 11 5 -5 -3 -11 -2 -34 2 -50 11 -41 1
-100 -17 -100 -13 0 -15 -23 -12 -135 1 -74 5 -151 7 -170 9 -67 7 -93 -10
-102 -9 -5 -16 -17 -16 -26 1 -14 4 -13 20 6 11 13 24 21 30 17 6 -3 10 4 11
17 4 117 4 128 -8 123 -14 -5 -16 16 -6 65 3 20 13 35 25 37 10 3 18 11 18 18
0 16 35 29 51 20 7 -5 4 -13 -7 -26 -13 -14 -17 -34 -15 -79 3 -92 -17 -178
-46 -197 -13 -9 -22 -22 -19 -29 12 -31 -40 -94 -65 -78 -5 3 -9 -2 -9 -10 0
-9 8 -16 18 -16 27 0 62 29 62 51 0 11 11 35 24 52 26 35 42 100 71 287 7 48
-13 77 -43 61 -11 -6 -28 -18 -36 -27 -9 -8 -16 -11 -16 -5 0 5 4 12 9 15 9 6
23 138 23 217 0 108 -17 198 -51 274 -5 11 -12 31 -15 45 -3 14 -31 54 -61 90
-30 36 -60 77 -66 93 -6 15 -17 27 -24 27 -7 0 -18 7 -25 15 -13 16 -90 55
-108 55 -5 0 -30 9 -55 20 -36 16 -226 53 -247 49 -3 -1 -27 -5 -53 -9z m67
-29 c21 -23 4 -38 -17 -16 -9 8 -28 15 -44 16 l-28 1 25 8 c39 12 46 11 64 -9z
m483 -239 c-29 -32 -13 -47 17 -17 13 13 17 11 35 -19 12 -18 21 -38 21 -45 0
-14 -17 -15 -25 -1 -3 6 -20 10 -36 10 -18 0 -28 4 -24 10 3 6 15 10 26 10 10
0 19 5 19 10 0 12 -2 12 -34 0 -16 -6 -35 -6 -48 0 -17 6 -19 9 -6 9 10 1 27
14 39 31 13 16 25 28 27 25 3 -3 -2 -13 -11 -23z m-1013 -214 l-5 -23 17 23
c9 12 21 22 27 22 5 0 3 -8 -6 -18 -9 -10 -19 -38 -23 -62 -6 -43 -6 -44 10
-25 15 19 16 19 6 -9 -7 -18 -7 -32 -1 -35 6 -4 6 -23 0 -51 -6 -25 -10 -51
-11 -58 -1 -7 -6 -11 -12 -9 -6 2 -10 23 -9 46 2 25 -1 40 -7 36 -6 -3 -10 -1
-10 4 0 6 5 11 10 11 12 0 14 67 2 72 -10 4 -3 98 8 98 5 0 6 -10 4 -22z"/>
<path d="M1308 2717 c18 -7 37 -19 42 -27 8 -13 10 -12 10 3 0 18 -37 38 -68
36 -9 0 -2 -6 16 -12z"/>
<path d="M1500 2711 c0 -4 11 -18 25 -31 26 -25 46 -20 29 7 -11 18 -54 37
-54 24z"/>
<path d="M1138 2672 c-14 -2 -32 -9 -38 -17 -10 -12 -5 -12 26 -3 20 5 50 7
66 4 16 -3 27 -2 24 3 -7 11 -43 17 -78 13z"/>
<path d="M1400 2653 c0 -7 10 -19 23 -28 13 -8 38 -35 57 -59 33 -46 71 -73
50 -38 -16 29 -130 138 -130 125z"/>
<path d="M1780 2635 c-1 -5 -1 -20 0 -32 0 -12 -6 -35 -14 -52 -21 -39 -20
-44 3 -29 24 14 35 66 22 99 -5 13 -11 20 -11 14z"/>
<path d="M1021 2603 c-11 -16 -28 -36 -38 -46 -22 -23 -27 -50 -6 -43 8 3 21
6 28 6 8 0 11 7 8 20 -3 11 0 20 6 20 6 0 11 10 11 21 0 19 4 21 30 16 17 -4
30 -2 30 3 0 6 10 10 23 11 21 0 21 1 2 9 -40 17 -73 11 -94 -17z"/>
<path d="M1505 2579 c50 -56 79 -69 49 -24 -9 14 -20 23 -24 20 -5 -3 -17 5
-27 18 -10 13 -25 27 -33 32 -8 4 8 -16 35 -46z"/>
<path d="M1646 2591 c2 -24 8 -49 11 -54 11 -17 24 33 13 51 -5 10 -10 13 -11
7 0 -5 -5 1 -10 15 -6 19 -7 14 -3 -19z"/>
<path d="M1100 2586 c0 -5 65 -46 74 -46 3 0 6 5 6 10 0 6 -6 10 -14 10 -7 0
-19 7 -26 15 -11 13 -40 21 -40 11z"/>
<path d="M1244 2535 c11 -8 24 -15 29 -15 4 0 6 -4 3 -9 -3 -5 2 -8 12 -7 9 0
16 -4 15 -11 -2 -7 4 -10 12 -7 9 4 15 0 15 -8 0 -19 34 -38 51 -27 10 6 10 9
2 9 -7 0 -24 10 -39 23 -27 24 -100 67 -112 67 -4 0 2 -7 12 -15z"/>
<path d="M1335 2530 c4 -6 11 -8 16 -5 5 3 6 -1 3 -9 -4 -10 -1 -16 9 -16 9 0
21 -8 26 -17 6 -10 11 -14 11 -9 0 5 -7 18 -17 28 -15 17 -15 18 3 18 16 0 17
2 4 10 -20 13 -63 13 -55 0z"/>
<path d="M1685 2513 c-7 -26 -8 -26 -15 -8 -10 23 -11 21 -14 -18 -1 -20 2
-26 12 -22 23 9 34 -6 15 -21 -10 -7 -13 -13 -6 -14 7 0 20 11 28 24 14 20 14
29 4 48 -7 13 -11 25 -10 26 2 2 1 6 -2 8 -3 3 -8 -8 -12 -23z"/>
<path d="M975 2500 c-3 -5 -15 -10 -25 -10 -10 0 -26 -10 -34 -22 -15 -22 -12
-43 5 -32 5 3 6 10 3 16 -5 7 -1 9 9 5 12 -4 17 -1 17 10 0 13 3 13 15 3 13
-11 13 -15 3 -21 -7 -5 -8 -9 -2 -9 18 0 24 13 12 27 -6 7 -8 16 -4 20 3 4 13
-2 22 -13 14 -17 15 -18 10 -1 -3 10 -6 23 -6 28 0 12 -17 12 -25 -1z"/>
<path d="M1493 2480 c-1 -15 4 -34 12 -40 11 -9 15 -9 15 -1 0 6 -5 11 -11 11
-8 0 -7 5 1 16 11 12 11 18 -1 29 -12 12 -14 10 -16 -15z"/>
<path d="M1589 2476 c13 -14 20 -29 16 -35 -3 -6 -1 -11 4 -11 6 0 11 6 11 13
0 18 -29 57 -42 57 -6 0 -1 -11 11 -24z"/>
<path d="M1540 2481 c0 -5 7 -17 16 -25 14 -15 11 -20 -8 -17 -10 1 -10 -13
-2 -22 4 -3 13 0 20 8 10 10 12 20 4 39 -9 25 -30 36 -30 17z"/>
<path d="M1440 2458 c-19 -9 -33 -18 -30 -18 19 -5 80 -5 79 -1 -4 32 -14 36
-49 19z"/>
<path d="M1237 2438 c3 -16 2 -19 -4 -10 -13 17 -93 27 -93 11 0 -6 -9 -9 -20
-6 -26 7 -26 -10 0 -18 12 -4 31 0 44 8 15 10 28 12 37 6 11 -7 10 -9 -4 -9
-10 0 -25 -7 -33 -15 -9 -8 -11 -15 -5 -15 5 0 12 4 16 9 3 6 17 6 34 1 22 -6
32 -4 45 12 19 22 15 48 -8 48 -9 0 -13 -7 -9 -22z"/>
<path d="M1297 2436 c3 -6 13 -19 21 -28 10 -12 11 -18 4 -18 -7 0 -12 4 -12
9 0 5 -7 11 -14 14 -10 4 -13 1 -9 -9 5 -15 6 -15 38 -19 11 -2 29 -6 40 -10
15 -6 14 -1 -8 20 -23 22 -26 30 -15 36 7 5 9 9 3 10 -5 0 -20 2 -32 3 -13 2
-20 -2 -16 -8z"/>
<path d="M1387 2423 c5 -13 2 -15 -12 -10 -15 6 -16 5 -5 -8 7 -9 16 -12 19
-8 3 4 12 9 20 11 9 2 11 -3 7 -15 -6 -14 -5 -16 5 -6 10 10 9 17 -9 33 -26
24 -33 25 -25 3z"/>
<path d="M1900 2400 c9 -16 8 -18 -5 -14 -13 5 -13 1 0 -35 8 -23 19 -49 24
-59 10 -16 10 -16 11 1 0 10 5 15 10 12 13 -8 13 8 0 21 -5 5 -11 23 -13 40
-4 34 -14 54 -28 54 -6 0 -6 -7 1 -20z"/>
<path d="M1633 1989 c-13 -5 -23 -16 -23 -25 0 -10 -3 -14 -7 -11 -3 4 -12 -1
-19 -11 -11 -15 -12 -12 -7 18 5 35 5 35 -15 15 -11 -11 -18 -23 -16 -26 2 -3
-8 -5 -21 -3 -28 3 -32 -8 -10 -26 13 -11 26 -11 66 -2 28 7 83 12 122 12 118
0 178 10 175 29 -4 21 -112 40 -137 24 -11 -7 -23 -8 -34 -1 -10 5 -22 6 -28
2 -6 -3 -14 -2 -18 3 -3 7 -15 7 -28 2z"/>
<path d="M1065 1979 c-4 -6 -12 -8 -19 -6 -6 2 -22 0 -35 -4 -18 -7 -21 -12
-12 -23 6 -7 8 -15 5 -18 -2 -3 53 -6 123 -7 70 -1 146 -6 168 -11 24 -5 44
-5 51 0 6 6 14 6 19 2 4 -4 1 4 -6 18 -20 36 -32 42 -48 22 -12 -15 -12 -15
-6 6 3 12 2 22 -4 22 -5 0 -11 -12 -13 -26 l-3 -26 -26 23 c-20 20 -37 24 -90
26 -39 0 -67 -3 -71 -10 -5 -8 -8 -6 -8 6 0 19 -15 23 -25 6z"/>
<path d="M1620 1899 c-19 -4 -31 -7 -26 -8 5 0 -1 -12 -14 -26 -27 -29 -25
-32 20 -41 24 -5 31 -4 26 4 -4 7 -14 12 -22 12 -22 0 -17 16 11 34 31 21 32
21 39 -9 9 -36 54 -45 77 -17 20 26 32 27 48 8 10 -12 7 -18 -17 -30 -16 -8
-32 -12 -36 -9 -3 4 -6 2 -6 -4 0 -6 11 -10 25 -10 13 0 22 3 19 8 -3 5 13 12
36 15 22 4 40 12 40 19 0 26 -159 65 -220 54z"/>
<path d="M1195 1888 c-98 -13 -127 -22 -143 -46 -13 -21 -13 -22 8 -22 12 0
33 9 47 20 l26 20 14 -20 c25 -36 83 -20 83 22 0 22 9 23 39 1 23 -15 23 -17
6 -30 -18 -13 -18 -13 1 -13 32 0 50 16 36 33 -7 7 -9 16 -6 19 13 13 -56 23
-111 16z"/>
<path d="M1357 1563 c-15 -15 -5 -25 19 -20 15 2 39 -2 54 -11 16 -9 34 -13
46 -8 18 7 18 8 1 18 -10 5 -24 8 -31 5 -6 -3 -20 1 -31 9 -20 15 -47 18 -58
7z"/>
<path d="M1509 1554 c-12 -15 -11 -16 8 -10 12 4 24 2 28 -4 3 -5 -1 -10 -10
-10 -9 0 -14 -4 -10 -10 3 -6 15 -5 30 2 28 13 30 19 13 36 -17 17 -43 15 -59
-4z"/>
<path d="M1320 1545 c0 -13 36 -35 57 -35 15 0 23 3 19 7 -7 8 -76 32 -76 28z"/>
<path d="M1881 1487 c-5 -13 -7 -45 -4 -72 5 -39 3 -47 -8 -40 -11 6 -11 5 -3
-4 9 -10 7 -24 -5 -59 -19 -53 -19 -209 0 -227 8 -7 9 13 4 73 -5 60 -2 96 9
135 27 94 37 169 25 183 -6 7 -8 18 -4 24 3 5 4 10 0 10 -3 0 -9 -10 -14 -23z"/>
<path d="M990 1436 c0 -8 14 -56 30 -106 31 -93 42 -231 21 -245 -19 -11 -53
-121 -53 -171 -1 -69 20 -151 42 -167 9 -6 21 -23 25 -36 23 -74 85 -144 218
-245 85 -65 59 -19 -35 63 -91 78 -150 153 -153 192 -1 11 -11 29 -23 40 -13
12 -22 33 -23 52 0 18 -2 42 -3 55 -5 42 12 212 22 225 11 14 18 114 9 137 -3
8 -8 28 -12 45 -4 16 -10 32 -15 35 -13 8 -18 63 -8 84 7 13 7 16 -1 12 -7 -4
-11 1 -11 12 0 11 -7 22 -15 26 -9 3 -15 0 -15 -8z"/>
<path d="M1467 1360 c-18 -22 -48 -26 -76 -10 -20 10 -123 -20 -129 -38 -5
-15 46 -20 66 -6 17 12 184 18 304 11 54 -3 48 15 -9 28 -26 6 -59 17 -72 24
-21 12 -23 11 -18 -2 4 -10 -2 -17 -16 -21 -41 -11 -49 -8 -37 14 6 11 9 20 8
20 -2 0 -11 -9 -21 -20z"/>
<path d="M1386 1210 c14 -14 127 -15 150 -2 15 9 -1 11 -70 12 -60 0 -87 -3
-80 -10z"/>
<path d="M1887 1009 c7 -92 -4 -129 -63 -215 -24 -35 -44 -69 -44 -75 0 -13
-63 -123 -91 -157 -10 -14 -19 -34 -19 -45 0 -37 57 29 96 112 19 41 51 92 70
114 82 97 107 212 65 302 l-19 40 5 -76z"/>
<path d="M1708 1037 c-16 -6 -28 -16 -28 -22 0 -17 -56 -46 -76 -38 -11 4 -15
3 -11 -4 8 -12 -50 -30 -60 -19 -4 3 -15 -1 -24 -10 -17 -16 -19 -16 -25 0 -9
24 -33 20 -27 -5 6 -20 11 -21 62 -15 70 8 135 39 186 88 22 21 38 38 35 37
-3 -1 -17 -6 -32 -12z"/>
<path d="M1226 1002 c49 -42 110 -69 175 -78 l51 -7 -13 24 c-7 14 -14 19 -17
11 -5 -16 -32 -16 -28 1 1 6 1 9 -1 5 -9 -16 -53 -8 -53 8 0 13 -3 14 -13 6
-17 -15 -78 16 -92 46 -5 11 -18 20 -28 19 -16 -1 -12 -8 19 -35z"/>
<path d="M1944 989 c22 -73 25 -100 20 -164 -12 -130 -58 -198 -204 -304 -55
-40 -65 -51 -67 -79 -1 -17 1 -32 3 -32 3 0 37 22 77 49 112 76 192 182 221
296 22 82 20 131 -8 191 -26 56 -55 85 -42 43z"/>
<path d="M933 924 c-40 -62 -20 -206 44 -307 41 -66 152 -169 221 -205 108
-57 96 -27 -30 78 -154 128 -213 234 -213 383 0 42 -1 77 -2 77 -2 0 -10 -12
-20 -26z"/>
<path d="M1661 583 c-28 -31 -47 -59 -41 -63 6 -4 1 -19 -13 -38 -13 -17 -32
-56 -42 -87 -19 -53 -31 -64 -51 -46 -5 4 -29 15 -54 24 -25 8 -54 18 -65 23
-18 7 -19 6 -6 -9 14 -18 94 -57 116 -57 6 0 17 -18 24 -41 14 -47 27 -44 22
6 -2 35 11 67 93 223 19 34 40 70 48 80 19 21 31 42 25 42 -3 0 -28 -26 -56
-57z"/>
<path d="M1280 407 c0 -17 50 -61 58 -52 7 7 -30 57 -46 63 -7 2 -12 -3 -12
-11z"/>
<path d="M1476 111 c-34 -37 3 -83 47 -59 14 7 17 13 9 16 -10 3 -10 7 -1 18
9 11 9 18 -1 29 -17 20 -33 19 -54 -4z"/>
</g>
</svg>
